<svg xmlns="http://www.w3.org/2000/svg" version="1.1" xmlns:xlink="http://www.w3.org/1999/xlink" xmlns:svgjs="http://svgjs.dev/svgjs" width="100%" height="100%" viewBox="0 0 1000 600"><rect width="1000" height="600" x="0" y="0" fill="#fcfef0"/><g><circle r="166.66666666666666" cx="365.36107889811194" cy="387.583284557956" fill="#0f1115" transform="matrix(0.6291067420407176,0,0,0.6291067420407177,0,56.168716858555044)"/><path d="M335.20571918900487 462.5832977494523L318.22831757119957 462.5832977494523L318.22831757119957 312.5832934390598L370.29046595991025 312.5832934390598Q390.9401840674238 312.5832934390598 401.70289624110734 322.3573050193603Q412.4938570031732 332.1030680112785 412.4938570031732 352.13131717437983L412.4938570031732 352.13131717437983Q412.4938570031732 364.1369672368877 407.9740828619938 372.52679798645204Q403.426060132432 380.9166287360164 397.0701277463984 385.49290005396057Q390.7141953603648 390.06917137190476 385.3469635677142 390.6906403163169L385.3469635677142 390.6906403163169Q390.8271897138943 391.08612055367007 396.1661729181625 393.6849906848483Q401.5051561224307 396.28386081602645 405.0644782586095 401.6793411970594Q408.6238003947883 407.04657298971 408.6238003947883 416.11436986045123L408.6238003947883 416.11436986045123Q408.6238003947883 424.4477034332508 408.6238003947883 433.14826865502124Q408.6238003947883 441.8488338767916 408.6238003947883 450.26691321473834L408.6238003947883 450.26691321473834Q408.6238003947883 454.6454444140059 409.3300151043476 458.0635236082729Q410.03622981390686 461.45335421415746 410.96843323052514 462.5832977494523L410.96843323052514 462.5832977494523L393.4825570218372 462.5832977494523Q392.7480937238955 461.25561409548084 392.04187901433625 458.0070264315081Q391.33566430477697 454.7584387675354 391.33566430477697 450.26691321473834L391.33566430477697 450.26691321473834Q391.33566430477697 442.4420542328214 391.33566430477697 434.30646077869847Q391.33566430477697 426.17086732457545 391.33566430477697 418.23301398912906L391.33566430477697 418.23301398912906Q391.33566430477697 408.2895108785343 385.03622909550813 403.40250508838403Q378.7367938862393 398.5154992982338 367.2396184146141 398.5154992982338L367.2396184146141 398.5154992982338L330.3187133988546 398.5154992982338L335.20571918900487 391.9053296167589L335.20571918900487 462.5832977494523ZM335.20571918900487 320.32340665582956L335.20571918900487 390.4929001976403L330.3187133988546 383.2612615717532L367.4373585332907 383.2612615717532Q374.95148304300153 383.2612615717532 381.1096753103585 379.56069649366253Q387.2678675777155 375.83188282718953 390.96843265580617 369.16521596894984Q394.69724632227917 362.5267976990925 394.69724632227917 353.57199518188077L394.69724632227917 353.57199518188077Q394.69724632227917 339.64544110937163 387.38086193124497 333.74148613745604Q380.0362289518284 327.8375311655404 366.2226692328487 327.8375311655404L366.2226692328487 327.8375311655404L329.9232331615014 327.8375311655404L335.20571918900487 320.32340665582956Z " fill="#fcfef0" transform="matrix(0.6291067420407176,0,0,0.6291067420407177,0,56.168716858555044)"/><path d="M631.3179791109069 460.7060056035307L615.3610877740755 460.7060056035307L615.3610877740755 361.0275814520488L631.3179791109069 361.0275814520488L631.3179791109069 391.61162318097587L626.0511620356783 389.734341847231Q626.6247757765448 384.2067912534266 628.8670840362956 378.8096074189101Q631.135465647904 373.41242358439354 635.1246884821119 369.0581738241797Q639.1139113163197 364.6778507121083 645.1107822435604 362.0965888782091Q651.1076531708009 359.51532704430986 659.190392246647 359.51532704430986L659.190392246647 359.51532704430986Q665.1872631738876 359.51532704430986 668.9939725450924 360.50611441489747Q672.8006819162974 361.496901785485 673.7393225831698 362.04444217449395L673.7393225831698 362.04444217449395L669.619732989674 377.7405999927498Q668.6810923228016 377.06269284445307 665.8130236184693 376.0458321220079Q662.9449549141368 375.0028980477052 657.678137838908 375.0028980477052L657.678137838908 375.0028980477052Q649.9082789853528 375.0028980477052 644.7718286694119 377.8188200483225Q639.6614517053287 380.6347420489398 636.7151629454235 385.2757986795869Q633.7428008336608 389.94292866209156 632.5434266482126 395.36618584846565Q631.3179791109069 400.81551638669737 631.3179791109069 406.1605535174987L631.3179791109069 406.1605535174987L631.3179791109069 460.7060056035307ZM707.6346799980081 460.7060056035307L691.8603021241795 460.7060056035307L691.8603021241795 361.0275814520488L707.6346799980081 361.0275814520488L707.6346799980081 460.7060056035307ZM699.8387477925953 338.1091051692467L699.8387477925953 338.1091051692467Q695.4323513286663 338.1091051692467 692.1731823464703 335.63213674277773Q688.9400867161319 333.1551683163088 688.9400867161319 328.82699190795256L688.9400867161319 328.82699190795256Q688.9400867161319 324.6031089070265 692.1731823464703 322.1261404805576Q695.4323513286663 319.62309870223106 699.8387477925953 319.62309870223106L699.8387477925953 319.62309870223106Q704.2451442565242 319.62309870223106 707.4260931831475 322.1261404805576Q710.6331154616283 324.6031089070265 710.6331154616283 328.82699190795256L710.6331154616283 328.82699190795256Q710.6331154616283 333.1551683163088 707.4260931831475 335.63213674277773Q704.2451442565242 338.1091051692467 699.8387477925953 338.1091051692467ZM765.6218145292389 460.7060056035307L749.6649231924075 460.7060056035307L749.6649231924075 375.1071914551354L727.8936743913382 375.1071914551354L727.8936743913382 361.0275814520488L749.6649231924075 361.0275814520488L749.6649231924075 348.17341898626785Q749.6649231924075 341.4986409107305 751.2293243038614 335.91894361321096Q752.767652063458 330.33924631569147 755.7400141752207 326.0110699073352Q758.6863029351259 321.68289349897896 762.9101859360519 318.6844580353586Q767.1340689369779 315.68602257173836 772.5312527714943 314.1476948121418Q777.928436606011 312.58329370068776 784.3164078111151 312.58329370068776L784.3164078111151 312.58329370068776Q788.905317738047 312.58329370068776 791.6430196830916 313.15690744155427Q794.3546482762788 313.70444783056314 795.2932889431511 314.1737681639994L795.2932889431511 314.1737681639994L795.2932889431511 328.253378167086Q794.1721348132758 327.8883512410801 791.5387262756612 327.41903090764384Q788.905317738047 326.94971057420764 785.9068822744266 326.94971057420764L785.9068822744266 326.94971057420764Q779.5189110693225 326.94971057420764 775.5296882351147 328.9312853153828Q771.5404654009069 330.8867867047004 769.3763771967288 334.3284691498993Q767.2383623444082 337.7440782432407 766.4300884368236 342.07225465159695Q765.6218145292389 346.37435770809566 765.6218145292389 351.0675610424579L765.6218145292389 351.0675610424579L765.6218145292389 361.0275814520488L794.7196752022846 361.0275814520488L794.7196752022846 375.1071914551354L765.6218145292389 375.1071914551354L765.6218145292389 460.7060056035307ZM828.43251915412 460.7060056035307L813.2317550211578 460.7060056035307L813.2317550211578 313.9912547009964L828.43251915412 313.9912547009964L828.43251915412 403.9182452577479L823.8175358753303 401.8584504610001L871.505696422822 361.0275814520488L892.1557910940157 361.0275814520488L844.3894104909514 403.08389799830576L848.6132934918774 394.89686551502945L892.5468913718792 460.7060056035307L875.3645524977421 460.7060056035307L838.2882461562806 403.73573179474494L841.5734884903341 405.61301312848985L826.0859174869388 419.0407893351372L828.43251915412 411.42737059272747L828.43251915412 460.7060056035307ZM926.4161754348597 460.7060056035307L910.6417975610314 460.7060056035307L910.6417975610314 361.0275814520488L926.4161754348597 361.0275814520488L926.4161754348597 460.7060056035307ZM918.6202432294469 338.1091051692467L918.6202432294469 338.1091051692467Q914.2138467655182 338.1091051692467 910.9807511351796 335.63213674277773Q907.7476555048413 333.1551683163088 907.7476555048413 328.82699190795256L907.7476555048413 328.82699190795256Q907.7476555048413 324.6031089070265 910.9807511351796 322.1261404805576Q914.2138467655182 319.62309870223106 918.6202432294469 319.62309870223106L918.6202432294469 319.62309870223106Q923.0527130452335 319.62309870223106 926.2336619718569 322.1261404805576Q929.4146108984801 324.6031089070265 929.4146108984801 328.82699190795256L929.4146108984801 328.82699190795256Q929.4146108984801 333.1551683163088 926.2336619718569 335.63213674277773Q923.0527130452335 338.1091051692467 918.6202432294469 338.1091051692467ZM997.2835457837293 462.58328693727555L997.2835457837293 462.58328693727555Q985.0029970588148 462.58328693727555 974.7561697787905 456.61248936189253Q964.5354158506241 450.66776513836703 958.4342515159533 439.0651235617494Q952.3330871812823 427.48855533698924 952.3330871812823 410.77553679628824L952.3330871812823 410.77553679628824Q952.3330871812823 394.3493251260205 958.5124715715258 382.9031236605482Q964.7179293136269 371.43084884321837 974.9386832417936 365.4861246196929Q985.1855105218178 359.51532704430986 997.2835457837293 359.51532704430986L997.2835457837293 359.51532704430986Q1008.8340406566317 359.51532704430986 1018.9244278255105 365.0168042862567Q1029.0148149943893 370.4922081763459 1035.2202727364904 380.26971512293386Q1041.399657126734 390.02114871766423 1041.399657126734 402.8753111834452L1041.399657126734 402.8753111834452Q1041.399657126734 403.16211805387843 1041.399657126734 403.44892492431165Q1041.399657126734 403.73573179474494 1041.399657126734 404.0225386651782L1041.399657126734 404.0225386651782L1029.9534556612618 404.4918589986144Q1029.9534556612618 404.20505212818114 1029.9534556612618 403.86609855403276Q1029.9534556612618 403.55321833174196 1029.9534556612618 403.26641146130873L1029.9534556612618 403.26641146130873Q1029.9534556612618 395.10545232989 1025.6774259566207 388.5349676617829Q1021.4013962519796 381.9644829936758 1014.4658846578666 378.0534802150406Q1007.5303730637534 374.168550788263 999.5519273953378 374.168550788263L999.5519273953378 374.168550788263Q986.2023712442628 374.168550788263 977.4938717238354 383.13778382726633Q968.75929885155 392.0809435144121 968.75929885155 410.77553679628824L968.75929885155 410.77553679628824Q968.75929885155 429.36583667073415 977.5199450756927 438.4132897653102Q986.3066646516932 447.4607428598862 999.5519273953378 447.4607428598862L999.5519273953378 447.4607428598862Q1007.8953999897594 447.4607428598862 1014.8048382320148 443.44544667382075Q1021.6882031224127 439.40407713589775 1025.833866067766 432.5989323010725Q1029.9534556612618 425.79378746624735 1029.9534556612618 417.34602146439533L1029.9534556612618 417.34602146439533L1041.399657126734 417.6328283348286Q1041.399657126734 430.3826973931793 1035.4810062550662 440.5773779694883Q1029.5884287352558 450.74598519393976 1019.5762616219497 456.6646360656076Q1009.5901678605012 462.58328693727555 997.2835457837293 462.58328693727555ZM1046.0146404055236 460.7060056035307L1029.9534556612618 460.7060056035307L1029.9534556612618 313.9912547009964L1046.0146404055236 313.9912547009964L1046.0146404055236 460.7060056035307ZM1161.467442430834 460.7060056035307L1145.5105510940023 460.7060056035307L1145.5105510940023 423.6296992620692Q1145.5105510940023 420.99629072445487 1145.5105510940023 417.3981681681105Q1145.5105510940023 413.77397225990853 1145.5105510940023 410.0715562961339Q1145.5105510940023 406.3691403323593 1145.5105510940023 403.73573179474494L1145.5105510940023 403.73573179474494Q1145.5105510940023 389.36931492122505 1139.3572400556163 382.0427030492485Q1133.2039290172304 374.71609117727195 1119.8804462180133 374.71609117727195L1119.8804462180133 374.71609117727195Q1110.963359882725 374.71609117727195 1104.2364351034726 378.209920326186Q1097.5355836760775 381.6776761232425 1093.781021008588 387.67454705048317Q1090.026458341098 393.69749132958134 1090.026458341098 401.28483672013357L1090.026458341098 401.28483672013357L1079.8839244685041 398.18210784908297Q1079.8839244685041 387.49203358748014 1085.4636217660236 378.7053140114798Q1091.069392415401 369.944667787337 1100.768679306416 364.72999741582345Q1110.4940395492888 359.51532704430986 1122.7745882742033 359.51532704430986L1122.7745882742033 359.51532704430986Q1140.7130543522098 359.51532704430986 1151.090248391522 370.30969471334294Q1161.467442430834 381.104062382376 1161.467442430834 400.16368259025813L1161.467442430834 400.16368259025813Q1161.467442430834 405.1436927950536 1161.467442430834 411.6098840557304Q1161.467442430834 418.1021486682648 1161.467442430834 425.22017372538085L1161.467442430834 425.22017372538085L1161.467442430834 460.7060056035307ZM1090.026458341098 460.7060056035307L1074.0695670042664 460.7060056035307L1074.0695670042664 313.9912547009964L1090.026458341098 313.9912547009964L1090.026458341098 460.7060056035307ZM1224.0695602408543 462.58328693727555L1224.0695602408543 462.58328693727555Q1212.7015788309548 462.58328693727555 1204.2016661253876 459.0112377327888Q1195.727826771678 455.439188528302 1191.0346234373158 448.738337100907Q1186.3414201029536 442.03748567351215 1186.3414201029536 432.6510790047877L1186.3414201029536 432.6510790047877Q1186.3414201029536 422.8735720581997 1191.3996503633218 416.3552340938078Q1196.45788062369 409.8368961294158 1205.6617738294115 406.1605535174987Q1214.865667035133 402.51028425743925 1227.0679957044747 401.28483672013357L1227.0679957044747 401.28483672013357Q1245.4757821159176 399.40755538638865 1253.2456409694728 397.58242075635894Q1261.0415731748856 395.7572861263292 1261.0415731748856 391.61162318097587L1261.0415731748856 391.61162318097587Q1261.0415731748856 391.5334031254032 1261.0415731748856 391.48125642168804Q1261.0415731748856 391.4291097179729 1261.0415731748856 391.3508896624002L1261.0415731748856 391.3508896624002Q1261.0415731748856 382.6945368456877 1254.0017681733423 378.44458049290415Q1246.961963171799 374.168550788263 1233.6384803725819 374.168550788263L1233.6384803725819 374.168550788263Q1219.741383832498 374.168550788263 1212.0497450345156 378.992120881913Q1204.358106236533 383.84176432742066 1204.358106236533 394.63613199645374L1204.358106236533 394.63613199645374L1188.5837283627045 394.63613199645374Q1188.5837283627045 383.45066404955713 1194.3198657713695 375.6286584922868Q1200.0299298281768 367.7805795831589 1210.224610404486 363.66098998966316Q1220.3932176289372 359.51532704430986 1233.7427737800122 359.51532704430986L1233.7427737800122 359.51532704430986Q1245.9451024493537 359.51532704430986 1255.7486827477992 363.2177430080845Q1265.5522630462447 366.9462323237167 1271.3144738067672 374.2206974919781Q1277.1027579191473 381.49516266023954 1277.1027579191473 392.1852369218424L1277.1027579191473 392.1852369218424Q1277.1027579191473 394.16681166301754 1277.1027579191473 396.07016634862Q1277.1027579191473 397.99959438608 1277.1027579191473 399.98116912725516L1277.1027579191473 399.98116912725516L1277.1027579191473 441.93319226608185Q1277.1027579191473 445.21843460013537 1277.3895647895806 448.32116347118597Q1277.6502983081564 451.4238923422365 1278.328205456453 453.77049400941763L1278.328205456453 453.77049400941763Q1279.1625527158953 456.58641601003495 1280.205486790198 458.30725723263447Q1281.222347512643 460.0541718070915 1281.8741813090824 460.7060056035307L1281.8741813090824 460.7060056035307L1265.839069916678 460.7060056035307Q1265.3697495832419 460.2366852700944 1264.4311089163693 458.4897706956374Q1263.492468249497 456.76892947303793 1262.632047638197 454.42232780585687L1262.632047638197 454.42232780585687Q1261.980213841758 452.54504647211195 1261.615186915752 449.6769777677795Q1261.2240866378886 446.808909063447 1261.2240866378886 443.70618019239646L1261.2240866378886 443.70618019239646L1263.857495175503 445.50524147056865Q1260.9633531193128 450.5634717309368 1255.3575824699358 454.42232780585687Q1249.7778851724163 458.2551105289193 1241.9037329114308 460.41919873309746Q1234.0035072985877 462.58328693727555 1224.0695602408543 462.58328693727555ZM1226.5986753710386 448.21687006375566L1226.5986753710386 448.21687006375566Q1236.2718889101961 448.21687006375566 1244.067821115609 445.2705813038505Q1251.8376799691641 442.2982191920878 1256.4526632479538 436.4838617278501Q1261.0415731748856 430.66950426361257 1261.0415731748856 422.0392247987576L1261.0415731748856 422.0392247987576L1261.0415731748856 402.223477387006L1264.6136223793724 408.24642166610414Q1258.6167514521317 410.59302333328526 1249.6475184131284 412.0270576854515Q1240.6782853741252 413.4871653894753 1230.9268517793948 414.42580605634777L1230.9268517793948 414.42580605634777Q1216.7429483688777 415.75554700108376 1209.5727766080465 419.4058162611432Q1202.376531495358 423.0560855212027 1202.376531495358 431.7124383379152L1202.376531495358 431.7124383379152Q1202.376531495358 439.87339746933395 1208.2951823670257 444.04513376654484Q1214.2138332386937 448.21687006375566 1226.5986753710386 448.21687006375566ZM1390.8607920737159 460.7060056035307L1374.9039007368842 460.7060056035307L1374.9039007368842 412.9396250004664Q1374.9039007368842 408.6114485921101 1374.9039007368842 405.8476732952079Q1374.9039007368842 403.08389799830576 1374.9039007368842 400.5287095162641L1374.9039007368842 400.5287095162641Q1374.9039007368842 392.7588506627089 1372.27049219927 386.9184198466137Q1369.6370836616557 381.104062382376 1364.005239660421 377.92311345575274Q1358.3733956591864 374.71609117727195 1349.273795860895 374.71609117727195L1349.273795860895 374.71609117727195Q1341.2953501924794 374.71609117727195 1334.4902053576543 378.8096074189101Q1327.685060522829 382.9031236605482 1323.6176176330482 389.78648855094616Q1319.52410139141 396.69592679320164 1319.52410139141 405.22191285062627L1319.52410139141 405.22191285062627L1310.424501593119 401.75415705356977Q1310.424501593119 390.02114871766423 1316.1867123536417 380.45222858593684Q1321.9749964660216 370.88330845420944 1331.5960633014643 365.19931774925965Q1341.2171301369067 359.51532704430986 1352.5590381949487 359.51532704430986L1352.5590381949487 359.51532704430986Q1364.1095330678513 359.51532704430986 1372.7398125327063 363.92172350823887Q1381.3700919975613 368.35419332402535 1386.1154420356386 376.56729915915923Q1390.8607920737159 384.7804049942931 1390.8607920737159 396.3048265153381L1390.8607920737159 396.3048265153381Q1390.8607920737159 400.4504894606914 1390.8607920737159 405.3262062580566Q1390.8607920737159 410.20192305542173 1390.8607920737159 414.42580605634777L1390.8607920737159 414.42580605634777L1390.8607920737159 460.7060056035307ZM1319.52410139141 460.7060056035307L1303.5672100545787 460.7060056035307L1303.5672100545787 361.0275814520488L1319.52410139141 361.0275814520488L1319.52410139141 460.7060056035307Z " fill="#0f1115" transform="matrix(0.6291067420407176,0,0,0.6291067420407177,0,56.168716858555044)"/></g></svg>