<svg width="471" height="500" viewBox="0 0 471 500" fill="none" xmlns="http://www.w3.org/2000/svg">
<circle cx="235.11" cy="235.11" r="235.11" fill="#F95A2C"/>
<path fill-rule="evenodd" clip-rule="evenodd" d="M419.148 335.885C414.671 336.324 410.195 336.763 405.719 337.202C384.281 338.84 362.851 342.261 341.577 344.314C341.047 343.452 340.01 343.594 339.381 344.193C337.258 344.007 334.879 342.385 332.956 344.072C332.893 344.064 332.831 344.053 332.768 344.047C329.344 337.476 326.977 330.467 324.68 323.448C323.214 319.133 321.242 314.956 317.597 312.059C311.376 307.741 297.123 298.984 289.818 299.352C289.697 298.044 289.087 296.696 288.086 295.826C290.293 292.064 281.471 289.61 280.849 290.046C281.247 277.479 275.336 266.566 262.302 264.063C250.624 261.63 234.015 261.221 227.735 273.425C227.045 273.347 219.988 273.31 219.305 273.387C218.244 272.042 206.585 284.783 211.364 289.218C168.645 308.115 144.355 305.86 132.531 358.985C130.933 363.976 130.816 369.437 129.128 374.317C123.123 388.339 118.253 403.27 117.04 418.528C114.113 419.278 113.776 424.44 117.167 425.187C118.463 425.472 119.546 425.862 120.49 426.602C119.752 439.105 122.776 467.668 124.681 467.58C128.566 479.944 145.896 483.434 158.165 479.089C156.05 483.068 158.165 485.569 158.165 487.695C202.311 489.366 250.581 488.404 294.715 490.694C300.36 490.614 306.298 492.081 311.867 491.237C315.263 490.422 315.268 485.083 311.824 484.423L326.875 481.154C326.538 481.027 333.079 476.676 338.022 468.547C342.623 459.453 339.492 448.476 341.577 438.583C357.86 437.252 374.413 436.682 390.518 433.925C392.714 440.495 402.22 432.637 405.242 429.476C405.238 429.471 405.234 429.467 405.23 429.462C406.693 429.062 407.865 427.691 407.904 426.069C408.93 424.603 409.145 422.538 408.162 421.122C412.669 395.113 419.541 368.558 422.024 342.305C422.902 342.11 423.729 341.725 424.43 341.132L424.373 341.075C425.561 339.751 425.792 337.466 423.812 336.341C422.215 335.432 420.881 335.714 419.148 335.885Z" fill="white"/>
<path fill-rule="evenodd" clip-rule="evenodd" d="M228.549 270.59C229.879 267.248 234.375 268.547 233.874 272.059C233.574 274.162 232.422 276.384 231.387 278.227C230.545 279.728 229.584 281.193 228.28 282.317C230.6 284.482 233.008 286.567 235.477 288.547C238.171 290.707 241.004 292.698 243.932 294.528C246.5 296.133 249.184 297.555 251.604 299.387C253.854 301.089 255.905 303.137 256.948 305.81C258.059 308.656 257.576 311.596 256.758 314.441L256.664 314.762C255.828 317.58 254.38 320.978 256.387 323.633C257.409 324.984 258.894 325.942 260.177 327.022C261.316 327.983 262.386 329.027 263.368 330.149C265.507 332.595 267.247 335.347 268.345 338.414L268.443 338.692C269.385 341.407 270.073 344.732 268.801 347.397C268.436 348.161 267.259 347.913 267.055 347.169C266.593 345.484 266.617 343.719 266.229 342.01C265.826 340.232 265.155 338.545 264.279 336.949C262.584 333.861 260.288 331.223 257.576 328.993L256.764 328.333C254.647 326.596 252.703 324.754 252.274 321.88C251.814 318.805 253.046 315.876 253.838 312.966C254.39 310.937 254.571 308.993 253.974 307.16C253.245 308.35 252.251 309.479 251.464 310.486C249.898 312.493 248.317 314.487 246.74 316.485C245.123 318.534 243.546 320.616 242.044 322.751C241.372 323.706 240.707 324.667 240.045 325.628C239.547 326.351 238.852 327.074 238.309 327.811C238.441 328.205 238.431 328.66 238.192 328.983C235.313 332.873 231.216 324.756 230.148 322.705C227.973 318.528 226.353 314.091 224.171 309.916C221.909 305.587 219.333 301.374 216.463 297.422C214.726 295.032 212.78 292.787 211.192 290.321C207.45 293.714 202.526 295.989 198.003 298.051C193.034 300.317 187.871 302.168 182.776 304.134L181.271 304.719C172.492 308.145 163.498 311.909 156.201 317.995C147.627 325.146 142.554 335.113 138.778 345.435C134.43 357.317 130.834 369.521 127.481 381.716C125.765 387.956 124.137 394.224 122.607 400.512C121.258 406.052 120.141 411.647 118.579 417.129C121.746 417.017 125.357 418.243 128.06 418.597C140.379 420.21 152.533 422.78 164.164 427.231C165.6 427.78 166.016 429.215 165.703 430.378C166.532 430.144 167.36 429.907 168.188 429.675C167.28 428.284 167.714 425.797 167.785 424.256L167.789 424.15C167.863 422.095 168.086 420.039 168.23 417.989C168.505 414.08 168.864 410.2 169.34 406.313L169.462 405.342C170.001 401.113 170.4 396.86 170.989 392.639L171.059 392.156C170.777 391.076 170.448 390.01 170.103 388.947C169.183 386.118 167.885 383.455 166.747 380.715C166.613 380.393 167.073 380.207 167.287 380.401C169.214 382.134 170.744 384.333 171.974 386.632C171.995 386.524 172.014 386.415 172.036 386.307L172.176 385.616C172.522 383.932 172.943 382.16 173.976 380.795C174.086 380.649 174.304 380.619 174.408 380.795C175.397 382.468 175.507 384.586 175.659 386.49C175.831 388.644 175.853 390.825 175.823 392.984C175.763 397.205 175.466 401.437 175.229 405.65C174.996 409.791 174.54 413.879 173.951 417.979L173.84 418.747C173.552 420.699 173.316 422.675 172.937 424.613L172.83 425.14C172.627 426.101 172.502 427.457 172.099 428.582C182.487 425.685 192.891 422.853 203.315 420.072C210.848 418.061 218.39 416.081 225.929 414.088C226.326 413.371 226.822 412.701 227.44 412.103C229.477 410.13 232.176 409.25 234.651 410.768C234.852 410.892 234.869 411.208 234.651 411.327C234.177 411.586 233.702 411.852 233.235 412.129L237.762 410.903C241.145 409.986 244.569 408.841 248.032 408.201C254.41 405.054 261.27 402.775 267.989 400.524L268.781 400.256C272.222 399.083 275.78 397.77 279.335 397.12C281.937 396.644 284.991 397.218 286.038 399.884C287.363 400.757 288.609 401.783 289.812 402.792C290.681 403.521 291.515 404.296 292.363 405.051L292.519 405.188C293.212 405.79 293.761 406.192 293.931 407.149C294.019 407.644 293.705 408.312 293.095 408.247C291.229 408.047 289.712 405.884 288.447 404.593C287.47 403.595 286.484 402.563 285.592 401.466C285.072 401.749 284.359 401.699 284.028 401.072C282.312 397.821 277.609 400.074 275.007 400.844L271.28 401.948C269.417 402.5 267.554 403.055 265.694 403.62C260.583 405.172 255.497 406.909 250.34 408.334C250.801 408.842 250.738 409.744 249.861 410.087C245.824 411.671 241.395 412.49 237.201 413.577C234.553 414.264 231.907 414.955 229.262 415.65C228.808 416.384 228.482 417.216 228.344 418.184C227.839 421.742 228.813 425.847 229.762 429.288L229.904 429.802C230.684 432.569 231.831 435.961 234.218 437.708C234.801 438.134 235.543 438.43 236.291 438.497C240.964 436.092 245.637 433.687 250.312 431.286C251.178 430.842 251.979 431.444 252.173 432.16C253.822 431.889 255.467 431.463 256.965 430.954C259.482 430.1 261.447 428.469 263.807 427.342C268.374 425.16 273.036 427.84 277.125 429.877L278.067 430.34C279.9 431.229 283.714 432.938 284.594 430.505C285.445 428.152 282.755 425.636 281.018 424.577C278.947 423.314 276.536 422.638 274.195 422.075C272.859 421.753 271.506 421.491 270.145 421.3C268.602 421.082 267.007 421.115 265.521 420.614C264.783 420.366 264.669 419.193 265.521 418.999C267.809 418.479 270.54 419.046 272.927 419.627L274.175 419.934C276.58 420.525 279.009 421.265 281.2 422.443C282.793 423.299 284.474 424.6 285.573 426.193C286.526 425.307 287.714 425.337 288.95 425.665L289.622 425.852C290.73 426.159 291.628 426.37 292.707 426.158C292.851 425.373 292.997 424.588 293.154 423.803C294.691 416.087 296.376 408.4 298.236 400.755C301.444 387.568 305.156 374.525 309.341 361.616L309.762 360.326C310.727 357.373 311.504 354.156 313.06 351.443C314.531 348.879 316.889 347.401 319.691 346.619C322.87 345.731 326.211 345.266 329.454 344.667C330.178 344.533 330.903 344.406 331.627 344.275C331.015 343.17 330.559 341.916 330.147 340.953L330.075 340.786C329.191 338.771 328.397 336.72 327.63 334.657L327.057 333.106C325.672 329.373 324.243 325.7 322.297 322.208C320.248 318.533 317.53 315.528 314.141 313.041C307.233 307.97 298.906 305.384 292.205 299.965C291.931 299.743 292.283 299.363 292.561 299.504C297.086 301.777 301.97 303.323 306.676 305.174L307.604 305.54C311.324 307.014 315.101 308.619 318.321 311.007C321.91 313.669 324.737 316.975 326.862 320.906C328.956 324.781 330.295 329.119 331.773 333.258L332.168 334.361C332.764 336.015 333.379 337.664 334.085 339.273C334.645 340.551 335.689 342.01 336.164 343.469C337.464 343.244 338.763 343.018 340.063 342.8C368.235 338.097 396.721 335.333 425.271 334.525C426.388 334.493 426.965 335.559 426.801 336.533C424.061 352.734 421.626 368.991 418.955 385.204C417.789 392.28 416.599 399.351 415.382 406.418C414.765 409.999 414.052 413.566 413.468 417.152C412.997 420.047 412.655 422.966 411.845 425.795C411.119 428.331 410.005 430.777 408.175 432.712C406.203 434.798 403.45 435.808 400.679 436.285C393.644 437.495 386.428 437.99 379.336 438.796L341.579 443.092C342.131 448.107 342.172 453.044 341.919 458.118L341.774 460.888C341.656 463.116 341.515 465.347 341.195 467.552C340.794 470.317 339.529 472.659 337.665 474.725C335.954 476.622 333.875 478.241 331.853 479.792C329.754 481.403 327.585 482.958 325.117 483.953L324.796 484.081C322.631 484.926 318.57 486.235 315.61 485.757C315.997 487.695 316.746 489.779 316.082 491.697C315.774 492.587 314.61 493.032 313.896 492.274C312.483 490.772 312.372 488.788 312.037 486.829C311.689 484.79 311.389 482.744 311.122 480.693C310.606 476.727 310.205 472.725 310.082 468.726C309.956 464.618 310.005 460.505 310.226 456.403C310.34 454.296 310.481 452.19 310.748 450.097C310.862 449.204 310.979 448.311 311.112 447.42C311.161 447.095 311.215 446.772 311.273 446.449L307.884 446.832C302.687 447.412 297.488 447.936 292.255 448.017C291.635 448.026 291.158 447.744 290.847 447.333C290.515 447.874 289.937 448.261 289.109 448.258C281.801 448.231 274.995 445.841 268.348 443.025C264.998 441.605 261.699 440.067 258.344 438.659C255.212 437.345 251.863 436.408 248.807 434.927L240.776 439.14C240.717 439.347 240.641 439.543 240.561 439.707C240.038 440.774 239.007 441.353 237.954 441.789C236.943 442.209 235.897 442.339 234.877 442.233C228.786 445.425 222.694 448.614 216.597 451.795L210.499 454.974C198.35 461.3 186.249 467.729 174.023 473.906L173.123 474.36C168.9 476.477 164.366 478.623 159.679 480.225C159.596 481.411 159.649 482.565 159.748 483.82L159.772 484.094C159.912 485.577 160.211 487.436 159.021 488.493C158.402 489.042 157.296 489.044 156.875 488.216C156.111 486.714 156.797 484.346 157.039 482.715C157.125 482.134 157.23 481.538 157.384 480.959C152.012 482.558 146.477 483.334 141.01 482.436C135.687 481.562 131.564 478.209 128.241 474.107C124.733 469.779 122.241 464.735 120.904 459.328C119.382 453.175 119.282 446.821 119.318 440.518C119.356 433.807 119.604 427.062 120.421 420.396C119.526 420.186 118.534 420.004 117.631 420.067C117.183 420.783 116.315 421.084 115.53 420.991C113.824 422.873 118.152 424.796 119.535 425.278C120.015 425.445 119.963 426.225 119.41 426.202L119.061 426.185C116.924 426.071 114.716 425.707 113.459 423.721C112.452 422.129 112.755 420.243 113.955 418.945C114.748 411.449 116.643 404.149 118.407 396.837C120.138 389.66 122.063 382.529 124.104 375.434L125.018 372.258C128.231 361.133 131.589 349.919 136.021 339.236C138.233 333.902 140.783 328.666 144.238 324.015C147.459 319.679 151.262 315.969 155.633 312.8C163.782 306.892 173.344 303.323 182.739 299.922L183.159 299.77C188.028 298.009 192.885 296.226 197.698 294.318C201.955 292.631 206.033 290.491 210.269 288.779C210.132 288.529 209.999 288.276 209.871 288.021L209.793 288.086C209.779 288.097 209.766 288.107 209.751 288.117C209.325 288.412 208.698 288.267 208.347 287.936C207.355 287 207.691 285.962 208.353 284.992L208.439 284.868C209.248 283.735 209.97 282.536 210.717 281.361L211.185 280.626C212.439 278.663 213.757 276.687 215.429 275.065C216.203 274.313 217.051 273.751 217.949 273.332C217.872 273.169 218.545 272.837 218.736 273.005C221.582 271.963 224.855 272.181 227.957 272.468M339.752 443.3L335.796 443.749C331.443 444.245 327.089 444.723 322.735 445.198L313.276 446.226C313.252 446.765 313.187 447.292 313.175 447.699C313.113 449.799 313.067 451.899 313.023 453.999C312.936 458.208 313.032 462.422 313.309 466.623C313.577 470.694 313.931 474.765 314.481 478.809L314.594 479.617L314.659 480.042C315.107 480.085 315.548 480.299 315.915 480.737C316.715 481.692 319.611 480.763 320.743 480.361C322.603 479.699 324.355 478.58 325.972 477.458C327.551 476.363 328.972 475.086 330.338 473.741L331.456 472.635C332.568 471.531 333.681 470.354 334.362 468.964C335.286 467.079 335.405 464.766 335.676 462.713C336.01 460.188 336.407 457.664 336.827 455.152M224.907 416.797L224.497 416.905C209.59 420.866 194.706 424.944 179.754 428.73C172.355 430.604 164.921 432.341 157.512 434.179L156.313 434.479C150.468 435.956 144.553 437.734 140.078 441.973C139.913 442.129 139.673 441.889 139.828 441.724C144.652 436.589 151.512 434.415 158.099 432.531C159.316 432.183 160.536 431.842 161.753 431.496C152.795 428.303 143.696 425.524 134.387 423.543C131.989 423.032 129.564 422.658 127.169 422.146C125.499 421.788 123.867 421.271 122.214 420.843L120.914 420.516L120.897 424.625C120.875 430.445 120.886 436.26 121.183 442.079L121.239 443.156C121.585 449.632 122.126 456.242 124.424 462.348C126.291 467.31 129.268 471.984 133.16 475.598C135.13 477.427 137.247 478.85 139.865 479.553C142.295 480.205 144.842 480.282 147.34 480.108C159.324 479.272 169.992 472.762 180.402 467.372C197.429 458.556 214.458 449.744 231.503 440.962C231.042 440.647 230.608 440.284 230.214 439.876C227.928 437.516 226.722 434.284 225.931 431.155C225.088 427.824 224.584 424.254 224.525 420.815M246.595 444.365C246.745 444.285 246.919 444.386 246.926 444.556C246.979 445.857 246.259 447.141 245.722 448.314L245.665 448.439C245.012 449.892 244.297 451.325 243.558 452.736C242.079 455.554 240.543 458.343 238.94 461.092C235.716 466.622 232.134 471.919 227.9 476.734C226.943 477.822 225.37 476.427 225.984 475.256C228.943 469.61 232.393 464.28 235.944 458.995C237.722 456.349 239.498 453.701 241.294 451.067C242.043 449.968 242.801 448.873 243.58 447.795L244.05 447.15M423.383 337.758C408.425 338.21 393.484 339.186 378.597 340.715C364.752 342.136 350.957 344.029 337.241 346.388C334.376 346.881 331.514 347.394 328.656 347.927L326.942 348.249C324.084 348.791 320.592 349.014 318.047 350.541C315.364 352.151 314.639 355.515 313.746 358.289C312.697 361.552 311.674 364.824 310.678 368.104C306.726 381.127 303.116 394.263 299.895 407.485C298.296 414.049 296.878 420.649 295.383 427.236C294.055 433.089 292.59 438.875 291.059 444.669C291.248 444.522 291.479 444.411 291.759 444.351C299.36 442.734 307.119 442.031 314.834 441.138L315.58 441.051C323.561 440.112 331.542 439.18 339.528 438.283L392.399 432.337C395.517 431.986 398.857 431.939 401.892 431.102C407.051 429.679 408.26 423.911 409.126 419.317L409.152 419.179C411.762 405.3 413.839 391.3 416.273 377.387M292.29 428.536C290.237 428.4 287.428 426.52 285.87 426.655C286.688 428.027 287.057 429.591 286.586 431.262C285.274 435.912 279.344 433.506 276.488 432.086C274.146 430.921 271.884 429.495 269.292 428.949C266.354 428.332 264.364 429.5 261.883 430.846C259.845 431.952 257.625 432.746 255.342 433.157C254.128 433.375 252.975 433.399 251.825 433.313C251.755 433.37 251.677 433.422 251.588 433.469L250.979 433.788C253.732 433.914 256.536 434.764 259.098 435.542C261.752 436.347 264.358 437.318 266.95 438.311L269.5 439.292C275.79 441.7 282.302 443.988 289.109 443.968C289.598 443.966 289.999 444.102 290.315 444.323M280.805 413.967C282.833 413.719 284.705 413.985 286.325 415.305C288.28 416.897 289.592 419.537 292.402 419.71C293.221 419.761 293.411 420.912 292.597 421.153C290.506 421.772 288.813 420.641 287.388 419.172L286.43 418.171C285.022 416.713 283.724 415.586 281.334 415.673C278.776 415.767 276.213 416.358 273.671 416.658C270.791 416.999 267.912 417.289 265.023 417.54C264.889 417.551 264.866 417.34 264.992 417.309L268.228 416.504M278.848 405.677L279.182 405.643C282.127 405.357 284.82 405.346 287.45 406.93L287.954 407.235C290.325 408.676 292.906 410.374 294.389 412.708C294.632 413.09 294.231 413.539 293.825 413.442C290.975 412.758 288.892 410.667 286.495 409.102C283.805 407.346 281.027 407.636 277.96 407.908C274.991 408.173 272.023 408.536 269.083 409.031C266.32 409.495 263.549 410.229 260.758 410.462L260.759 410.457C260.44 410.456 260.258 409.978 260.583 409.815C263.415 408.401 266.695 407.732 269.776 407.086M368.304 376.572C368.019 375.21 369.694 374.579 370.47 375.659L370.635 375.887C372.312 378.184 374.737 381.067 374.614 383.988C376.087 384.021 377.616 384.916 378.19 386.246C378.456 386.862 378.545 387.591 378.487 388.346C379.827 388.45 381.288 389.329 382.107 390.186C383.465 391.605 383.572 393.612 382.598 395.271C380.474 398.887 375.835 400.202 371.919 400.496L371.779 400.506C367.734 400.786 361.905 400.71 359.131 397.24C356.456 393.892 359.413 391.182 362.445 389.71C361.656 388.989 361.247 387.956 361.631 386.866C362.306 384.95 364.689 384.21 366.035 382.878C367.677 381.254 368.761 379.027 368.329 376.699M370.527 379.516C370.081 381.454 368.985 383.227 367.459 384.632C366.875 385.169 366.236 385.648 365.558 386.059L365.476 386.106C364.874 386.444 363.395 387.077 363.508 387.836C363.626 388.615 366.037 389.835 366.694 389.835C366.843 389.835 366.928 390.069 366.775 390.137C365.584 390.663 364.544 390.888 363.38 390.332C362.602 391.126 361.846 391.948 361.097 392.763C359.773 394.205 360.226 395.727 361.791 396.8C364.304 398.525 368.125 398.483 371.057 398.358C374.009 398.232 377.164 397.574 379.47 395.607L379.57 395.52C380.823 394.405 381.968 392.517 380.049 391.444C379.298 391.023 378.486 391.048 377.772 390.844C377.104 392.153 376.021 393.201 374.7 393.403C373.632 393.566 372.896 392.224 373.868 391.582L374.086 391.446C375.306 390.667 376.347 389.468 376.319 387.906C376.301 386.822 374.786 385.452 373.8 386.471L373.755 386.52C372.929 387.45 371.476 386.278 372.018 385.247L372.045 385.2M178.013 325.603C178.009 325.371 178.337 325.283 178.451 325.485C180.367 328.856 181.369 332.988 182.39 336.702C183.459 340.592 184.322 344.522 185.097 348.48C186.667 356.496 187.504 364.466 187.561 372.636C187.568 373.803 185.668 374.113 185.482 372.918C184.248 364.971 183.066 357.015 181.822 349.071C181.196 345.075 180.468 341.094 179.771 337.11M196.981 331.475C196.84 331.01 197.517 330.854 197.69 331.279C201.535 340.718 202.837 351.415 200.368 361.372C199.991 362.895 197.76 362.236 198.045 360.732M246.579 323.088C246.56 322.74 247.011 322.685 247.182 322.925C249.004 325.492 249.759 328.93 252.956 330.256C254.552 330.919 256.348 330.803 257.758 331.922C258.7 332.67 259.423 333.852 258.716 334.985C258.488 335.351 257.849 335.534 257.539 335.137C257.087 334.557 256.848 333.863 256.234 333.428C255.368 332.816 254.2 332.778 253.206 332.49C251.922 332.117 250.789 331.465 249.862 330.497M277.017 280.272C277.205 280.176 277.385 280.237 277.506 280.4C277.677 280.631 277.656 280.856 277.446 281.015C277.727 281.588 278.058 283.024 278.105 283.234C278.297 284.081 278.501 284.924 278.715 285.766C279.145 287.464 279.523 289.175 279.954 290.874C280.411 292.675 280.955 294.456 281.561 296.212C281.6 296.326 281.643 296.442 281.689 296.559L281.758 296.737L281.775 296.71C281.898 296.516 282.154 296.652 282.124 296.857C282.096 297.045 282.058 297.231 282.026 297.419L282.089 297.587C282.485 298.654 282.757 299.777 282.03 300.718C281.758 301.071 281.458 301.279 281.085 301.341C280.487 303.313 279.737 305.248 278.933 307.106L278.698 307.649C277.516 310.361 276.255 313.037 274.374 315.345C272.319 317.865 269.493 319.586 267.703 322.348C266.871 323.633 266.291 324.984 265.821 326.434L265.644 326.985C265.311 328.011 264.925 329.006 263.963 329.608C263.656 329.8 263.196 329.739 262.948 329.477C260.974 327.389 263.04 323.49 264.231 321.468C265.885 318.657 268.28 316.858 270.678 314.737C273.262 312.451 274.911 309.393 276.506 306.38C277.482 304.534 278.425 302.649 279.418 300.795C278.381 299.878 278.049 298.057 277.697 296.791L277.665 296.678C277.085 294.651 276.623 292.571 276.332 290.482C276.051 288.474 275.934 286.495 276.008 284.475L276.03 283.961M280.874 289.83C280.645 289.516 281.024 289.16 281.339 289.226C283.25 289.621 285.119 290.778 286.835 291.714L287.018 291.813C288.388 292.552 289.766 293.457 290.485 294.891C291.267 296.451 291.203 298.247 291.096 299.942L291.086 300.1C290.955 302.133 290.934 304.244 290.504 306.24C290.284 307.261 289.359 307.549 288.568 307.307C287.627 310.279 284.983 312.468 283.052 314.813C280.59 317.802 281.054 321.838 281.311 325.439C281.415 326.896 279.602 327.311 278.668 326.533L276.516 324.746C276.157 324.447 275.8 324.148 275.443 323.848C275.137 323.591 274.834 323.332 274.533 323.069L274.085 322.673C273.886 322.495 273.008 321.514 272.751 321.473C272.129 321.374 270.652 323.013 270.146 323.527L270.082 323.591C269.13 324.525 268.27 325.529 267.469 326.594C267.322 326.789 267.034 326.627 267.139 326.401C267.857 324.864 268.691 323.394 269.682 322.018L269.882 321.744C270.542 320.856 271.427 319.287 272.59 319.025C274.011 318.705 275.43 320.129 276.464 320.92L276.529 320.97C277.021 321.339 277.507 321.714 277.992 322.092C277.942 319.412 278.28 316.703 279.664 314.393C280.64 312.764 282.102 311.558 283.353 310.158C284.746 308.599 285.473 306.683 286.734 305.059C286.897 304.85 287.12 304.738 287.363 304.702C287.411 303.397 287.603 302.079 287.752 300.788L287.795 300.401C287.945 298.998 288.3 297.285 287.613 295.971C286.964 294.73 285.476 293.854 284.373 293.012L283.473 292.314M218.832 274.997C218.256 275.33 217.718 275.744 217.23 276.262C215.694 277.891 214.595 279.92 213.526 281.871C212.951 282.921 212.396 283.984 211.816 285.032C211.563 285.488 211.304 285.939 211.042 286.39C210.92 286.597 210.56 287.01 210.381 287.264C210.58 287.542 210.785 287.816 210.994 288.087C211.074 288.191 216.585 294.194 218.506 296.544C221.448 300.143 224.078 303.944 226.326 308.013C228.527 311.998 230.203 316.217 232.242 320.279C233.263 322.312 234.402 324.331 235.855 326.091C235.911 326.16 235.971 326.225 236.028 326.292C236.583 324.794 238.003 323.19 238.701 322.269L238.767 322.182C240.349 320.049 242.021 317.979 243.729 315.945C245.289 314.088 246.888 312.27 248.526 310.483L249.142 309.814C250.284 308.581 251.734 306.737 253.405 305.856C253.226 305.537 253.018 305.221 252.78 304.909C251.215 302.864 249.002 301.379 246.818 300.039L245.402 299.178C240.064 295.925 234.809 292.521 230.175 288.295C227.723 286.058 225.305 283.716 223.245 281.107L222.516 280.185M227.738 273.387C225.239 273.596 222.539 273.547 220.229 274.361C222.283 276.302 224.235 278.399 226.24 280.373C226.419 279.037 226.784 277.719 227.093 276.417" fill="#18191F"/>
<path fill-rule="evenodd" clip-rule="evenodd" d="M243.698 144.098C291.212 141.761 312.653 175.215 314.04 190.157C315.002 200.53 308.874 212.485 308.874 221.753C308.874 226.484 314.667 236.641 311.97 243.537C305.968 258.884 293.259 275.917 277.065 275.917C260.871 275.917 239.794 280.396 221.9 254.775C220.221 252.371 198.985 238.707 196.922 225.724C191.783 193.384 209.794 145.765 243.698 144.098Z" fill="white"/>
<path fill-rule="evenodd" clip-rule="evenodd" d="M241.458 123.278C243.157 121.335 246.025 120.557 248.574 120.708C252.276 120.927 255.496 123.212 259.179 123.382C263.041 123.56 266.768 122.222 270.64 122.842C273.013 123.225 275.364 124.325 276.884 126.181C282.15 124.673 287.868 126.67 291.223 131.03C295.361 130.388 299.862 133.128 301.129 137.115C306.386 137.284 311.348 141.507 311.934 146.799C314.035 147.353 315.859 148.802 316.978 150.717C318.279 152.936 318.495 155.482 318.26 157.983C320.734 159.247 321.991 161.962 322.32 164.833C324.58 166.52 325.561 169.551 325.1 172.413C326.831 173.388 327.724 175.657 327.715 177.683C327.705 179.573 327.204 181.247 327.909 183.071C328.538 184.696 328.763 186.05 328.418 187.752L328.382 187.918C328.321 188.195 328.27 188.461 328.224 188.724C328.692 189.134 329.088 189.649 329.385 190.248C330.469 192.436 330.308 194.931 329.481 197.151C329.843 198.564 329.797 200.056 329.262 201.415C330.264 202.858 330.791 204.629 330.636 206.466C330.462 208.523 329.523 210.364 328.099 211.726C328.478 214.535 327.336 217.571 325.271 219.549C325.564 221.231 325.311 222.993 324.391 224.588C323.735 225.724 322.852 226.571 321.834 227.161C321.867 228.099 321.74 229.058 321.428 230.02C320.994 231.354 320.26 232.583 319.294 233.573C319.871 237.259 317.664 241.349 313.779 242.383C313.453 242.47 313.142 242.51 312.844 242.516C312.458 246.061 311.615 249.557 310.31 252.877C306.994 261.331 300.962 268.723 293.097 273.335C289.207 275.614 284.837 277.175 280.376 277.827C277.166 278.297 274.078 278.181 270.856 277.861C266.812 277.457 262.749 276.852 258.818 275.811L258.186 275.643C256.556 275.206 254.838 274.703 253.426 273.824C251.846 272.839 251.025 271.322 250.662 269.535C250.459 268.541 251.089 267.471 252.178 267.45L252.248 267.451C252.486 267.456 252.722 267.447 252.961 267.431L253.141 267.419H253.15C253.163 267.416 253.17 267.416 253.182 267.416C253.288 267.4 253.392 267.369 253.495 267.353C254.693 267.152 255.741 267.352 256.865 267.726L257.006 267.773C258.9 268.425 260.777 269.03 262.734 269.479C264.755 269.94 266.803 270.306 268.856 270.595L269.06 270.62L269.122 270.629L269.154 270.632V270.632C269.16 270.632 269.166 270.632 269.172 270.635L269.777 270.711V270.711C270.254 270.767 270.73 270.817 271.207 270.867C272.085 270.955 272.962 271.024 273.84 271.074C288.991 271.927 301.715 259.999 305.555 245.698C306.947 240.523 307.038 235.36 306.627 230.193C306.495 229.817 306.417 229.4 306.42 228.943C306.42 228.704 306.433 228.469 306.448 228.231C305.938 223.234 305.05 218.234 304.495 213.219C303.847 207.36 303.486 201.467 303.618 195.57C303.683 192.657 303.994 189.773 304.401 186.89L304.549 185.854V185.854C302.707 185.494 300.995 184.621 299.631 183.356C296.673 185.065 292.844 185.216 289.923 183.412C286.65 185.465 282.078 185.651 278.782 183.644C276.791 185.066 274.281 185.68 271.817 185.14C270.709 184.897 269.607 184.372 268.664 183.645C267.99 183.764 267.308 183.81 266.629 183.775L266.489 183.853V183.853C264.924 184.677 263.192 185.22 261.408 185.16C260.088 185.115 258.728 184.855 257.468 184.362C256.123 185.174 254.651 185.728 253.076 185.927C250.776 186.217 248.294 185.708 246.381 184.403C242.886 186.394 238.586 186.701 234.813 185.363C234.04 186.672 232.971 187.8 231.719 188.67C231.943 189.473 232.014 190.33 231.937 191.153C231.811 192.509 231.471 193.724 230.915 194.816C231.501 196.035 231.677 197.531 231.349 199.033C230.882 201.176 229.635 203.039 228.022 204.491C227.879 207.909 226.004 211.115 222.953 212.896C222.798 212.986 222.645 213.059 222.492 213.125C222.357 213.31 222.196 213.472 222.012 213.609C220.071 215.401 217 215.259 214.568 214.246C214.521 214.248 214.474 214.252 214.427 214.253C213.558 214.275 212.966 213.936 212.614 213.438C212.261 213.457 211.909 213.494 211.555 213.56C210.263 213.802 208.846 214.266 207.677 214.868C204.643 216.429 203.238 219.187 202.818 222.504C202.361 226.121 203.401 229.808 206.201 232.256C207.561 233.447 209.301 234.193 211.069 234.507C213.022 234.855 215.11 233.999 216.552 235.676C216.84 236.009 217.038 236.472 216.881 236.921C216.392 238.319 215.586 238.855 214.326 239.049C216.147 241.209 218.016 243.297 220.085 245.237C222.323 247.341 224.636 249.378 226.656 251.698C228.79 254.153 230.718 256.755 232.056 259.733C232.821 261.444 233.436 263.209 234.098 264.961L234.216 265.267C234.954 267.129 235.935 268.923 234.799 270.867C234.348 271.632 233.326 272.372 232.386 272.25C229.737 271.911 228.85 270.121 228.035 267.789C227.42 266.027 226.95 264.215 226.289 262.469C226.165 262.146 226.03 261.826 225.889 261.508C224.361 261.934 222.682 261.596 221.319 260.725C219.863 261.37 218.249 261.692 216.691 261.665C214.604 261.628 212.698 261.049 211.059 260.003C210.929 259.969 210.798 259.935 210.668 259.898C208.175 260.853 205.255 260.683 202.998 259.135C201.536 258.133 200.536 256.795 199.968 255.306C198.08 255.27 196.211 254.6 194.858 253.26C193.615 252.03 192.889 250.443 192.673 248.794C191.048 248.472 189.524 247.686 188.328 246.362C187.33 245.256 186.724 243.848 186.519 242.386C184.539 241.821 182.753 240.529 181.778 238.726C180.87 237.048 180.739 235.228 181.183 233.572L181.068 233.406V233.406C179.029 232.339 177.472 230.592 177.312 228.096C177.267 227.385 177.344 226.674 177.536 226.001C177.467 225.249 177.511 224.498 177.708 223.77C174.966 221.103 173.972 216.817 175.461 213.275C172.781 210.391 172.072 205.83 174.038 202.407C172.69 200.777 171.997 198.698 172.113 196.479C172.257 193.708 173.527 191.288 175.047 189.046C173.919 187.798 173.317 186.059 173.361 184.378C173.423 181.943 174.718 179.846 176.339 178.109C174.925 173.82 176.505 169.168 179.975 166.454C179.273 165.297 179.013 163.864 179.242 162.413C179.643 159.877 181.545 158.15 183.599 156.783C183.169 155.385 183.282 153.877 183.966 152.432C184.878 150.504 186.599 149.281 188.395 148.247C188.859 143.971 193.636 140.319 197.643 142.526C196.649 139.344 199.511 135.908 202.803 135.545C204.414 130.661 209.972 127.582 214.969 128.795C217.524 125.303 222.279 123.959 226.317 125.457C230.756 122.056 236.263 121.551 241.458 123.278ZM209.837 219.175C212.956 219.006 215.295 221.551 216.938 223.88C218.48 226.065 214.524 228.372 213.37 225.965C212.956 225.106 212.486 224.197 211.856 223.444C211.75 223.593 211.657 223.746 211.564 223.903L211.47 224.062C211.401 224.178 211.329 224.297 211.27 224.419C211.276 224.441 211.182 224.73 211.179 224.742C210.922 225.523 210.361 226.024 209.596 226.294C208.608 226.639 207.674 225.896 207.357 225.024C206.853 223.633 208.025 222.419 209.245 221.868C208.047 221.673 206.868 222.081 206.003 223.002C205.884 223.131 205.683 223.028 205.677 222.868C205.577 220.683 207.862 219.281 209.837 219.175Z" fill="#18191F"/>
<path fill-rule="evenodd" clip-rule="evenodd" d="M283.091 252.072C285.072 251.611 286.628 253.288 286.239 255.22C285.826 257.266 283.627 257.966 281.784 257.902C279.693 257.83 277.604 257.398 275.503 257.311C273.345 257.222 271.178 257.206 269.019 257.264C267.021 257.318 264.971 257.67 262.989 257.354C262.217 257.231 262.29 256.212 262.793 255.85C264.284 254.775 266.216 254.337 267.973 253.886C269.765 253.425 271.597 253.073 273.434 252.858C275.297 252.64 277.176 252.531 279.051 252.51C279.905 252.5 280.951 252.69 281.784 252.536C282.208 252.458 282.64 252.178 283.091 252.072ZM277.371 225.507C279.738 226.946 283.345 230.301 280.799 233.868C277.801 237.014 273.485 233.407 271.359 231.776C269.387 230.512 267.171 233.763 269.001 235.239C284.369 246.617 290.605 225.883 278.569 223.815C277.243 223.587 276.751 225.062 277.371 225.507ZM260.207 214.762C263.373 214.236 263.927 218.75 260.789 219.065C260.13 219.131 259.475 219.189 258.822 219.246C258.885 219.451 258.928 219.661 258.951 219.877C258.981 220.061 259.003 220.256 259.023 220.479C259.122 221.59 258.335 222.744 257.415 223.283C256.458 223.842 255.086 223.917 254.136 223.283C253.647 222.956 253.158 222.587 252.888 222.046C252.526 221.49 252.328 220.847 252.308 220.186C250.865 220.561 249.395 221.068 247.937 221.337C247.99 221.39 248.043 221.446 248.094 221.507C248.133 221.555 248.08 221.643 248.023 221.6L247.292 221.438V221.438C247.067 221.467 246.841 221.491 246.617 221.505L246.622 221.486V221.486C246.247 221.479 245.94 221.036 246.276 220.681C247.564 219.319 249.574 218.414 251.406 217.658L253.172 216.934C255.43 216.016 257.813 215.16 260.207 214.762ZM285.68 216.159C287.754 215.922 289.808 216.016 291.885 216.143C295.381 216.356 293.915 221.454 291.109 220.277C291.138 220.463 291.145 220.65 291.123 220.824C291.014 221.72 290.722 222.478 289.899 222.959C289.135 223.406 288.167 223.405 287.403 222.959C286.585 222.482 286.216 221.81 286.007 220.936C285.845 220.259 285.91 219.692 286.003 219.021C286.034 218.799 286.131 218.592 286.265 218.405C286.07 218.357 285.874 218.309 285.678 218.265C283.933 217.868 282.211 217.948 280.472 217.696C280.286 217.669 280.257 217.37 280.419 217.294C281.982 216.559 283.97 216.354 285.68 216.159ZM259.887 200.412C261.084 199.956 262.587 200.715 263.198 201.76C263.892 202.946 263.595 204.314 262.74 205.313C261.427 206.846 258.927 207.79 257.084 208.664L256.936 208.735C255.044 209.648 253.1 210.486 251.13 211.217C249.192 211.936 247.177 212.499 245.168 212.982C244.109 213.237 243.027 213.447 241.944 213.58C241.09 213.685 240.431 213.451 239.613 213.451C239.494 213.451 239.457 213.293 239.554 213.232C240.318 212.752 240.885 212.119 241.718 211.674C242.586 211.211 243.457 210.756 244.331 210.305C246.098 209.394 247.8 208.381 249.504 207.36C251.301 206.285 253.057 205.152 254.765 203.94C256.436 202.753 257.976 201.141 259.887 200.412ZM281.215 199.437C282.71 199.147 284.19 199.854 284.632 201.377C285.057 202.837 284.613 203.149 285.744 204.194C286.646 205.026 287.619 205.769 288.6 206.5L290.044 207.574C292.66 209.51 295.298 211.341 298.306 212.648C298.56 212.758 298.413 213.136 298.172 213.141C293.39 213.233 288.805 212.586 284.489 210.445C282.473 209.445 280.447 208.18 279.278 206.184C277.925 203.872 277.965 200.067 281.215 199.437Z" fill="#18191F"/>
</svg>
